;Holesize 1 =   28.0 PLATED MILS
;Holesize 2 =   45.0 PLATED MILS
;Holesize 3 =   14.0 PLATED MILS
M48
INCH
T01C0.028
T02C0.045
T03C0.014
%
G05
G90
T01
X037000Y031000
X036000Y031000
X035000Y031000
X034000Y031000
X033000Y031000
X032000Y031000
X031000Y031000
X030000Y031000
X029000Y031000
X028000Y031000
X027000Y031000
X026000Y031000
X025000Y031000
X024000Y031000
X023000Y031000
X022000Y031000
X022000Y025000
X023000Y025000
X024000Y025000
X025000Y025000
X026000Y025000
X027000Y025000
X028000Y025000
X029000Y025000
X030000Y025000
X031000Y025000
X032000Y025000
X033000Y025000
X034000Y025000
X035000Y025000
X036000Y025000
X037000Y025000
X043000Y031000
X043000Y030000
X043000Y029000
X043000Y028000
X043000Y027000
X043000Y026000
X043000Y025000
X043000Y024000
X046000Y024000
X046000Y025000
X046000Y026000
X046000Y027000
X046000Y028000
X046000Y029000
X046000Y030000
X046000Y031000
T02
X044000Y033000
X046000Y033000
X039000Y029000
X039000Y027000
T03
X029800Y036100
X029800Y032400
X029500Y025600
X036100Y035900
X040500Y031500
X036000Y027600
X036500Y026000
X039300Y026000
X038100Y036900
X038100Y034800
X038100Y028000
X040400Y031000
X039800Y026400
X037100Y026400
X037400Y032000
X030000Y032000
X028500Y035600
X035700Y031700
X031000Y031700
X034700Y032400
X032000Y032400
X031500Y030200
X032600Y037100
X031000Y027300
X030400Y036100
X030400Y033600
X035300Y037100
X030000Y026800
X033600Y036400
X032000Y029800
M30
