G04 FreePCB version 1.200*
G04 \\DISKSTATION\museum\Computers\RK86\Clones\Apogey BK-01\RomDisk\My\CAM\top_silk.grb*
G04 top silk layer *
G04 Scale: 100 percent, Rotated: No, Reflected: No *
%FSLAX26Y26*%
%MOIN*%
%LNTop*%
%ADD10C,0.005000*%
%ADD11C,0.007000*%
%ADD12C,0.010000*%
G90*
G70D02*

G04 ----------------------- Draw board outline (positive)*
%LPD*%
G54D10*
G01X2310000Y4140000D02*
G01X4490000Y4140000D01*
G04 end of side 1*
G01X4490000Y3640000D01*
G04 end of side 2*
G01X4800000Y3330000D01*
G04 end of side 3*
G01X4800000Y2190000D01*
G04 end of side 4*
G01X2000000Y2190000D01*
G04 end of side 5*
G01X2000000Y3330000D01*
G04 end of side 6*
G01X2300000Y3630000D01*
G04 end of side 7*
G01X2300000Y4140000D01*
G04 end of side 8*
G01X2320000Y4140000D01*
G04 end of side 9*
G01X2310000Y4140000D01*

G04 -------------- Draw Parts, Pads, Traces, Vias and Text (positive)*
%LPD*%
G04 Draw part D1*
G04 draw part outline for part D1*
G54D11*
G01X3750000Y3050000D02*
G01X2150000Y3050000D01*
G01X2150000Y3050000D02*
G01X2150000Y2550000D01*
G01X2150000Y2550000D02*
G01X3750000Y2550000D01*
G01X3750000Y2550000D02*
G01X3750000Y3050000D01*
G01X3750000Y2850000D02*
G01X3700000Y2850000D01*
G01X3700000Y2850000D02*
G01X3700000Y2750000D01*
G01X3700000Y2750000D02*
G01X3750000Y2750000D01*
G01X3750000Y2750000D02*
G01X3750000Y2850000D01*
G04 draw reference designator for part D1*
G01X3872727Y2800000D02*
G01X3825000Y2800000D01*
G01X3872727Y2784090D02*
G01X3872727Y2800000D01*
G01X3872727Y2784090D02*
G01X3870454Y2777272D01*
G01X3870454Y2777272D02*
G01X3865909Y2772727D01*
G01X3865909Y2772727D02*
G01X3861363Y2770454D01*
G01X3861363Y2770454D02*
G01X3854545Y2768181D01*
G01X3854545Y2768181D02*
G01X3843181Y2768181D01*
G01X3843181Y2768181D02*
G01X3836363Y2770454D01*
G01X3836363Y2770454D02*
G01X3831818Y2772727D01*
G01X3831818Y2772727D02*
G01X3827272Y2777272D01*
G01X3827272Y2777272D02*
G01X3825000Y2784090D01*
G01X3825000Y2800000D02*
G01X3825000Y2784090D01*
G01X3865909Y2745454D02*
G01X3863636Y2750000D01*
G01X3872727Y2738636D02*
G01X3865909Y2745454D01*
G01X3872727Y2738636D02*
G01X3825000Y2738636D01*
G04 Draw part B*
G04 draw part outline for part B*
G04 draw reference designator for part B*
G01X2362204Y3684735D02*
G01X2362204Y3637007D01*
G01X2382659Y3684735D02*
G01X2362204Y3684735D01*
G01X2382659Y3684735D02*
G01X2389477Y3682462D01*
G01X2389477Y3682462D02*
G01X2391750Y3680189D01*
G01X2391750Y3680189D02*
G01X2394022Y3675644D01*
G01X2394022Y3675644D02*
G01X2394022Y3671098D01*
G01X2394022Y3671098D02*
G01X2391750Y3666553D01*
G01X2391750Y3666553D02*
G01X2389477Y3664280D01*
G01X2389477Y3664280D02*
G01X2382659Y3662007D01*
G01X2382659Y3662007D02*
G01X2362204Y3662007D01*
G01X2382659Y3662007D02*
G01X2389477Y3659735D01*
G01X2389477Y3659735D02*
G01X2391750Y3657462D01*
G01X2391750Y3657462D02*
G01X2394022Y3652916D01*
G01X2394022Y3652916D02*
G01X2394022Y3646098D01*
G01X2394022Y3646098D02*
G01X2391750Y3641553D01*
G01X2391750Y3641553D02*
G01X2389477Y3639280D01*
G01X2389477Y3639280D02*
G01X2382659Y3637007D01*
G01X2362204Y3637007D02*
G01X2382659Y3637007D01*
G04 Draw part A*
G04 Draw part D2*
G04 draw part outline for part D2*
G01X4350000Y3150000D02*
G01X4350000Y2350000D01*
G01X4350000Y2350000D02*
G01X4550000Y2350000D01*
G01X4550000Y2350000D02*
G01X4550000Y3150000D01*
G01X4550000Y3150000D02*
G01X4350000Y3150000D01*
G01X4400000Y3150000D02*
G01X4400000Y3100000D01*
G01X4400000Y3100000D02*
G01X4500000Y3100000D01*
G01X4500000Y3100000D02*
G01X4500000Y3150000D01*
G01X4500000Y3150000D02*
G01X4400000Y3150000D01*
G04 draw reference designator for part D2*
G01X4450000Y3247727D02*
G01X4450000Y3200000D01*
G01X4465909Y3247727D02*
G01X4450000Y3247727D01*
G01X4465909Y3247727D02*
G01X4472727Y3245454D01*
G01X4472727Y3245454D02*
G01X4477272Y3240909D01*
G01X4477272Y3240909D02*
G01X4479545Y3236363D01*
G01X4479545Y3236363D02*
G01X4481818Y3229545D01*
G01X4481818Y3229545D02*
G01X4481818Y3218181D01*
G01X4481818Y3218181D02*
G01X4479545Y3211363D01*
G01X4479545Y3211363D02*
G01X4477272Y3206818D01*
G01X4477272Y3206818D02*
G01X4472727Y3202272D01*
G01X4472727Y3202272D02*
G01X4465909Y3200000D01*
G01X4450000Y3200000D02*
G01X4465909Y3200000D01*
G01X4502272Y3238636D02*
G01X4502272Y3236363D01*
G01X4504545Y3243181D02*
G01X4502272Y3238636D01*
G01X4506818Y3245454D02*
G01X4504545Y3243181D01*
G01X4511363Y3247727D02*
G01X4506818Y3245454D01*
G01X4520454Y3247727D02*
G01X4511363Y3247727D01*
G01X4520454Y3247727D02*
G01X4525000Y3245454D01*
G01X4525000Y3245454D02*
G01X4527272Y3243181D01*
G01X4527272Y3243181D02*
G01X4529545Y3238636D01*
G01X4529545Y3238636D02*
G01X4529545Y3234090D01*
G01X4529545Y3234090D02*
G01X4527272Y3229545D01*
G01X4527272Y3229545D02*
G01X4522727Y3222727D01*
G01X4522727Y3222727D02*
G01X4500000Y3200000D01*
G01X4531818Y3200000D02*
G01X4500000Y3200000D01*
G04 Draw part C1*
G04 draw part outline for part C1*
G01X4362000Y3350000D02*
G01X4638000Y3350000D01*
G01X4638000Y3350000D02*
G01X4638000Y3250000D01*
G01X4638000Y3250000D02*
G01X4362000Y3250000D01*
G01X4362000Y3250000D02*
G01X4362000Y3350000D01*
G04 draw reference designator for part C1*
G01X4531818Y3420909D02*
G01X4534090Y3416363D01*
G01X4527272Y3425454D02*
G01X4531818Y3420909D01*
G01X4522727Y3427727D02*
G01X4527272Y3425454D01*
G01X4513636Y3427727D02*
G01X4522727Y3427727D01*
G01X4513636Y3427727D02*
G01X4509090Y3425454D01*
G01X4509090Y3425454D02*
G01X4504545Y3420909D01*
G01X4504545Y3420909D02*
G01X4502272Y3416363D01*
G01X4502272Y3416363D02*
G01X4500000Y3409545D01*
G01X4500000Y3409545D02*
G01X4500000Y3398181D01*
G01X4500000Y3398181D02*
G01X4502272Y3391363D01*
G01X4502272Y3391363D02*
G01X4504545Y3386818D01*
G01X4504545Y3386818D02*
G01X4509090Y3382272D01*
G01X4509090Y3382272D02*
G01X4513636Y3380000D01*
G01X4522727Y3380000D02*
G01X4513636Y3380000D01*
G01X4527272Y3382272D02*
G01X4522727Y3380000D01*
G01X4531818Y3386818D02*
G01X4527272Y3382272D01*
G01X4534090Y3391363D02*
G01X4531818Y3386818D01*
G01X4556818Y3420909D02*
G01X4552272Y3418636D01*
G01X4563636Y3427727D02*
G01X4556818Y3420909D01*
G01X4563636Y3427727D02*
G01X4563636Y3380000D01*
G04 Draw part C2*
G04 draw part outline for part C2*
G01X3950000Y2938000D02*
G01X3950000Y2662000D01*
G01X3950000Y2662000D02*
G01X3850000Y2662000D01*
G01X3850000Y2662000D02*
G01X3850000Y2938000D01*
G01X3850000Y2938000D02*
G01X3950000Y2938000D01*
G04 draw reference designator for part C2*
G01X4020909Y2768181D02*
G01X4016363Y2765909D01*
G01X4025454Y2772727D02*
G01X4020909Y2768181D01*
G01X4027727Y2777272D02*
G01X4025454Y2772727D01*
G01X4027727Y2786363D02*
G01X4027727Y2777272D01*
G01X4027727Y2786363D02*
G01X4025454Y2790909D01*
G01X4025454Y2790909D02*
G01X4020909Y2795454D01*
G01X4020909Y2795454D02*
G01X4016363Y2797727D01*
G01X4016363Y2797727D02*
G01X4009545Y2800000D01*
G01X4009545Y2800000D02*
G01X3998181Y2800000D01*
G01X3998181Y2800000D02*
G01X3991363Y2797727D01*
G01X3991363Y2797727D02*
G01X3986818Y2795454D01*
G01X3986818Y2795454D02*
G01X3982272Y2790909D01*
G01X3982272Y2790909D02*
G01X3980000Y2786363D01*
G01X3980000Y2777272D02*
G01X3980000Y2786363D01*
G01X3982272Y2772727D02*
G01X3980000Y2777272D01*
G01X3986818Y2768181D02*
G01X3982272Y2772727D01*
G01X3991363Y2765909D02*
G01X3986818Y2768181D01*
G01X4018636Y2745454D02*
G01X4016363Y2745454D01*
G01X4023181Y2743181D02*
G01X4018636Y2745454D01*
G01X4025454Y2740909D02*
G01X4023181Y2743181D01*
G01X4027727Y2736363D02*
G01X4025454Y2740909D01*
G01X4027727Y2727272D02*
G01X4027727Y2736363D01*
G01X4027727Y2727272D02*
G01X4025454Y2722727D01*
G01X4025454Y2722727D02*
G01X4023181Y2720454D01*
G01X4023181Y2720454D02*
G01X4018636Y2718181D01*
G01X4018636Y2718181D02*
G01X4014090Y2718181D01*
G01X4014090Y2718181D02*
G01X4009545Y2720454D01*
G01X4009545Y2720454D02*
G01X4002727Y2725000D01*
G01X4002727Y2725000D02*
G01X3980000Y2747727D01*
G01X3980000Y2715909D02*
G01X3980000Y2747727D01*

G04 Draw traces*

G04 Draw Text*
G54D12*
G01X4206363Y2268181D02*
G01X4215454Y2259090D01*
G01X4215454Y2259090D02*
G01X4229090Y2254545D01*
G01X4229090Y2254545D02*
G01X4247272Y2254545D01*
G01X4247272Y2254545D02*
G01X4260909Y2259090D01*
G01X4260909Y2259090D02*
G01X4270000Y2268181D01*
G01X4270000Y2268181D02*
G01X4270000Y2277272D01*
G01X4270000Y2277272D02*
G01X4265454Y2286363D01*
G01X4265454Y2286363D02*
G01X4260909Y2290909D01*
G01X4260909Y2290909D02*
G01X4251818Y2295454D01*
G01X4251818Y2295454D02*
G01X4224545Y2304545D01*
G01X4224545Y2304545D02*
G01X4215454Y2309090D01*
G01X4215454Y2309090D02*
G01X4210909Y2313636D01*
G01X4210909Y2313636D02*
G01X4206363Y2322727D01*
G01X4206363Y2322727D02*
G01X4206363Y2336363D01*
G01X4206363Y2336363D02*
G01X4215454Y2345454D01*
G01X4215454Y2345454D02*
G01X4229090Y2350000D01*
G01X4229090Y2350000D02*
G01X4247272Y2350000D01*
G01X4247272Y2350000D02*
G01X4260909Y2345454D01*
G01X4260909Y2345454D02*
G01X4270000Y2336363D01*
G01X4156363Y2254545D02*
G01X4156363Y2331818D01*
G01X4156363Y2331818D02*
G01X4151818Y2345454D01*
G01X4151818Y2345454D02*
G01X4142727Y2350000D01*
G01X4142727Y2350000D02*
G01X4133636Y2350000D01*
G01X4170000Y2286363D02*
G01X4138181Y2286363D01*
G01X4042727Y2286363D02*
G01X4042727Y2350000D01*
G01X4042727Y2300000D02*
G01X4051818Y2290909D01*
G01X4051818Y2290909D02*
G01X4060909Y2286363D01*
G01X4060909Y2286363D02*
G01X4074545Y2286363D01*
G01X4074545Y2286363D02*
G01X4083636Y2290909D01*
G01X4083636Y2290909D02*
G01X4092727Y2300000D01*
G01X4092727Y2300000D02*
G01X4097272Y2313636D01*
G01X4097272Y2313636D02*
G01X4097272Y2322727D01*
G01X4097272Y2322727D02*
G01X4092727Y2336363D01*
G01X4092727Y2336363D02*
G01X4083636Y2345454D01*
G01X4083636Y2345454D02*
G01X4074545Y2350000D01*
G01X4074545Y2350000D02*
G01X4060909Y2350000D01*
G01X4060909Y2350000D02*
G01X4051818Y2345454D01*
G01X4051818Y2345454D02*
G01X4042727Y2336363D01*
G01X4006363Y2286363D02*
G01X4006363Y2350000D01*
G01X4006363Y2313636D02*
G01X4001818Y2300000D01*
G01X4001818Y2300000D02*
G01X3992727Y2290909D01*
G01X3992727Y2290909D02*
G01X3983636Y2286363D01*
G01X3983636Y2286363D02*
G01X3970000Y2286363D01*
G01X3920000Y2254545D02*
G01X3920000Y2331818D01*
G01X3920000Y2331818D02*
G01X3915454Y2345454D01*
G01X3915454Y2345454D02*
G01X3906363Y2350000D01*
G01X3906363Y2350000D02*
G01X3897272Y2350000D01*
G01X3933636Y2286363D02*
G01X3901818Y2286363D01*
G01X3856363Y2286363D02*
G01X3860909Y2290909D01*
G01X3860909Y2290909D02*
G01X3856363Y2295454D01*
G01X3856363Y2295454D02*
G01X3851818Y2290909D01*
G01X3851818Y2290909D02*
G01X3856363Y2286363D01*
G01X3856363Y2340909D02*
G01X3860909Y2345454D01*
G01X3860909Y2345454D02*
G01X3856363Y2350000D01*
G01X3856363Y2350000D02*
G01X3851818Y2345454D01*
G01X3851818Y2345454D02*
G01X3856363Y2340909D01*
G01X3770000Y2254545D02*
G01X3770000Y2350000D01*
G01X3770000Y2254545D02*
G01X3729090Y2254545D01*
G01X3729090Y2254545D02*
G01X3715454Y2259090D01*
G01X3715454Y2259090D02*
G01X3710909Y2263636D01*
G01X3710909Y2263636D02*
G01X3706363Y2272727D01*
G01X3706363Y2272727D02*
G01X3706363Y2281818D01*
G01X3706363Y2281818D02*
G01X3710909Y2290909D01*
G01X3710909Y2290909D02*
G01X3715454Y2295454D01*
G01X3715454Y2295454D02*
G01X3729090Y2300000D01*
G01X3729090Y2300000D02*
G01X3770000Y2300000D01*
G01X3738181Y2300000D02*
G01X3706363Y2350000D01*
G01X3642727Y2254545D02*
G01X3656363Y2259090D01*
G01X3656363Y2259090D02*
G01X3665454Y2272727D01*
G01X3665454Y2272727D02*
G01X3670000Y2295454D01*
G01X3670000Y2295454D02*
G01X3670000Y2309090D01*
G01X3670000Y2309090D02*
G01X3665454Y2331818D01*
G01X3665454Y2331818D02*
G01X3656363Y2345454D01*
G01X3656363Y2345454D02*
G01X3642727Y2350000D01*
G01X3642727Y2350000D02*
G01X3633636Y2350000D01*
G01X3633636Y2350000D02*
G01X3620000Y2345454D01*
G01X3620000Y2345454D02*
G01X3610909Y2331818D01*
G01X3610909Y2331818D02*
G01X3606363Y2309090D01*
G01X3606363Y2309090D02*
G01X3606363Y2295454D01*
G01X3606363Y2295454D02*
G01X3610909Y2272727D01*
G01X3610909Y2272727D02*
G01X3620000Y2259090D01*
G01X3620000Y2259090D02*
G01X3633636Y2254545D01*
G01X3633636Y2254545D02*
G01X3642727Y2254545D01*
G01X3560909Y2345454D02*
G01X3565454Y2350000D01*
G01X3565454Y2350000D02*
G01X3570000Y2345454D01*
G01X3570000Y2345454D02*
G01X3565454Y2340909D01*
G01X3565454Y2340909D02*
G01X3560909Y2345454D01*
G01X3560909Y2345454D02*
G01X3560909Y2354545D01*
G01X3560909Y2354545D02*
G01X3565454Y2363636D01*
G01X3565454Y2363636D02*
G01X3570000Y2368181D01*
G01X3524545Y2272727D02*
G01X3515454Y2268181D01*
G01X3515454Y2268181D02*
G01X3501818Y2254545D01*
G01X3501818Y2254545D02*
G01X3501818Y2350000D01*
G01X3438181Y2254545D02*
G01X3451818Y2259090D01*
G01X3451818Y2259090D02*
G01X3460909Y2272727D01*
G01X3460909Y2272727D02*
G01X3465454Y2295454D01*
G01X3465454Y2295454D02*
G01X3465454Y2309090D01*
G01X3465454Y2309090D02*
G01X3460909Y2331818D01*
G01X3460909Y2331818D02*
G01X3451818Y2345454D01*
G01X3451818Y2345454D02*
G01X3438181Y2350000D01*
G01X3438181Y2350000D02*
G01X3429090Y2350000D01*
G01X3429090Y2350000D02*
G01X3415454Y2345454D01*
G01X3415454Y2345454D02*
G01X3406363Y2331818D01*
G01X3406363Y2331818D02*
G01X3401818Y2309090D01*
G01X3401818Y2309090D02*
G01X3401818Y2295454D01*
G01X3401818Y2295454D02*
G01X3406363Y2272727D01*
G01X3406363Y2272727D02*
G01X3415454Y2259090D01*
G01X3415454Y2259090D02*
G01X3429090Y2254545D01*
G01X3429090Y2254545D02*
G01X3438181Y2254545D01*
G01X3338181Y2254545D02*
G01X3351818Y2259090D01*
G01X3351818Y2259090D02*
G01X3360909Y2272727D01*
G01X3360909Y2272727D02*
G01X3365454Y2295454D01*
G01X3365454Y2295454D02*
G01X3365454Y2309090D01*
G01X3365454Y2309090D02*
G01X3360909Y2331818D01*
G01X3360909Y2331818D02*
G01X3351818Y2345454D01*
G01X3351818Y2345454D02*
G01X3338181Y2350000D01*
G01X3338181Y2350000D02*
G01X3329090Y2350000D01*
G01X3329090Y2350000D02*
G01X3315454Y2345454D01*
G01X3315454Y2345454D02*
G01X3306363Y2331818D01*
G01X3306363Y2331818D02*
G01X3301818Y2309090D01*
G01X3301818Y2309090D02*
G01X3301818Y2295454D01*
G01X3301818Y2295454D02*
G01X3306363Y2272727D01*
G01X3306363Y2272727D02*
G01X3315454Y2259090D01*
G01X3315454Y2259090D02*
G01X3329090Y2254545D01*
G01X3329090Y2254545D02*
G01X3338181Y2254545D01*
G01X3092727Y2268181D02*
G01X3165454Y2309090D01*
G01X3165454Y2309090D02*
G01X3092727Y2350000D01*
G01X3056363Y2254545D02*
G01X3056363Y2350000D01*
G01X3056363Y2254545D02*
G01X3015454Y2254545D01*
G01X3015454Y2254545D02*
G01X3001818Y2259090D01*
G01X3001818Y2259090D02*
G01X2997272Y2263636D01*
G01X2997272Y2263636D02*
G01X2992727Y2272727D01*
G01X2992727Y2272727D02*
G01X2992727Y2281818D01*
G01X2992727Y2281818D02*
G01X2997272Y2290909D01*
G01X2997272Y2290909D02*
G01X3001818Y2295454D01*
G01X3001818Y2295454D02*
G01X3015454Y2300000D01*
G01X3056363Y2300000D02*
G01X3015454Y2300000D01*
G01X3015454Y2300000D02*
G01X3001818Y2304545D01*
G01X3001818Y2304545D02*
G01X2997272Y2309090D01*
G01X2997272Y2309090D02*
G01X2992727Y2318181D01*
G01X2992727Y2318181D02*
G01X2992727Y2331818D01*
G01X2992727Y2331818D02*
G01X2997272Y2340909D01*
G01X2997272Y2340909D02*
G01X3001818Y2345454D01*
G01X3001818Y2345454D02*
G01X3015454Y2350000D01*
G01X3015454Y2350000D02*
G01X3056363Y2350000D01*
G01X2956363Y2254545D02*
G01X2956363Y2350000D01*
G01X2892727Y2254545D02*
G01X2956363Y2318181D01*
G01X2933636Y2295454D02*
G01X2892727Y2350000D01*
G01X2856363Y2268181D02*
G01X2783636Y2309090D01*
G01X2783636Y2309090D02*
G01X2856363Y2350000D01*
G01X2570000Y2277272D02*
G01X2574545Y2268181D01*
G01X2574545Y2268181D02*
G01X2583636Y2259090D01*
G01X2583636Y2259090D02*
G01X2592727Y2254545D01*
G01X2592727Y2254545D02*
G01X2610909Y2254545D01*
G01X2610909Y2254545D02*
G01X2620000Y2259090D01*
G01X2620000Y2259090D02*
G01X2629090Y2268181D01*
G01X2629090Y2268181D02*
G01X2633636Y2277272D01*
G01X2633636Y2277272D02*
G01X2638181Y2290909D01*
G01X2638181Y2290909D02*
G01X2638181Y2313636D01*
G01X2638181Y2313636D02*
G01X2633636Y2327272D01*
G01X2633636Y2327272D02*
G01X2629090Y2336363D01*
G01X2629090Y2336363D02*
G01X2620000Y2345454D01*
G01X2620000Y2345454D02*
G01X2610909Y2350000D01*
G01X2610909Y2350000D02*
G01X2592727Y2350000D01*
G01X2592727Y2350000D02*
G01X2583636Y2345454D01*
G01X2583636Y2345454D02*
G01X2574545Y2336363D01*
G01X2574545Y2336363D02*
G01X2570000Y2327272D01*
G01X2570000Y2327272D02*
G01X2570000Y2313636D01*
G01X2592727Y2313636D02*
G01X2570000Y2313636D01*
G01X2356363Y2268181D02*
G01X2429090Y2309090D01*
G01X2429090Y2309090D02*
G01X2356363Y2350000D01*
G01X2320000Y2254545D02*
G01X2320000Y2350000D01*
G01X2320000Y2254545D02*
G01X2279090Y2254545D01*
G01X2279090Y2254545D02*
G01X2265454Y2259090D01*
G01X2265454Y2259090D02*
G01X2260909Y2263636D01*
G01X2260909Y2263636D02*
G01X2256363Y2272727D01*
G01X2256363Y2272727D02*
G01X2256363Y2281818D01*
G01X2256363Y2281818D02*
G01X2260909Y2290909D01*
G01X2260909Y2290909D02*
G01X2265454Y2295454D01*
G01X2265454Y2295454D02*
G01X2279090Y2300000D01*
G01X2320000Y2300000D02*
G01X2279090Y2300000D01*
G01X2279090Y2300000D02*
G01X2265454Y2304545D01*
G01X2265454Y2304545D02*
G01X2260909Y2309090D01*
G01X2260909Y2309090D02*
G01X2256363Y2318181D01*
G01X2256363Y2318181D02*
G01X2256363Y2331818D01*
G01X2256363Y2331818D02*
G01X2260909Y2340909D01*
G01X2260909Y2340909D02*
G01X2265454Y2345454D01*
G01X2265454Y2345454D02*
G01X2279090Y2350000D01*
G01X2279090Y2350000D02*
G01X2320000Y2350000D01*
G01X2220000Y2254545D02*
G01X2220000Y2350000D01*
G01X2156363Y2254545D02*
G01X2220000Y2318181D01*
G01X2197272Y2295454D02*
G01X2156363Y2350000D01*
G01X2120000Y2268181D02*
G01X2047272Y2309090D01*
G01X2047272Y2309090D02*
G01X2120000Y2350000D01*
M00*
M02*
