G04 FreePCB version 1.200*
G04 \\DISKSTATION\museum\Computers\RK86\Clones\Apogey BK-01\RomDisk\My\CAM\top_copper.grb*
G04 top copper layer *
G04 Scale: 100 percent, Rotated: No, Reflected: No *
%FSLAX26Y26*%
%MOIN*%
%LNTop*%
%ADD10C,0.005000*%
%ADD11R,0.055000X0.055000*%
%ADD12C,0.055000*%
%ADD13C,0.075000*%
%ADD14C,0.028000*%
%ADD15C,0.010000*%
G90*
G70D02*

G04 ----------------------- Draw board outline (positive)*
%LPD*%
G54D10*
G01X2310000Y4140000D02*
G01X4490000Y4140000D01*
G04 end of side 1*
G01X4490000Y3640000D01*
G04 end of side 2*
G01X4800000Y3330000D01*
G04 end of side 3*
G01X4800000Y2190000D01*
G04 end of side 4*
G01X2000000Y2190000D01*
G04 end of side 5*
G01X2000000Y3330000D01*
G04 end of side 6*
G01X2300000Y3630000D01*
G04 end of side 7*
G01X2300000Y4140000D01*
G04 end of side 8*
G01X2320000Y4140000D01*
G04 end of side 9*
G01X2310000Y4140000D01*

G04 ----------------------- Draw copper areas (positive)*
%LPD*%

G04 -------------- Draw Parts, Pads, Traces, Vias and Text (positive)*
%LPD*%
G04 Draw part D1*
G54D11*
G01X3700000Y3100000D03*
G54D12*
G01X3600000Y3100000D03*
G01X3500000Y3100000D03*
G01X3400000Y3100000D03*
G01X3300000Y3100000D03*
G01X3200000Y3100000D03*
G01X3100000Y3100000D03*
G01X3000000Y3100000D03*
G01X2900000Y3100000D03*
G01X2800000Y3100000D03*
G01X2700000Y3100000D03*
G01X2600000Y3100000D03*
G01X2500000Y3100000D03*
G01X2400000Y3100000D03*
G01X2300000Y3100000D03*
G01X2200000Y3100000D03*
G01X2200000Y2500000D03*
G01X2300000Y2500000D03*
G01X2400000Y2500000D03*
G01X2500000Y2500000D03*
G01X2600000Y2500000D03*
G01X2700000Y2500000D03*
G01X2800000Y2500000D03*
G01X2900000Y2500000D03*
G01X3000000Y2500000D03*
G01X3100000Y2500000D03*
G01X3200000Y2500000D03*
G01X3300000Y2500000D03*
G01X3400000Y2500000D03*
G01X3500000Y2500000D03*
G01X3600000Y2500000D03*
G01X3700000Y2500000D03*
G04 Draw part B*
G36*
G01X2322834Y3740157D02*
G01X2322834Y4133858D01*
G01X2401574Y4133858D01*
G01X2401574Y3740157D01*
G01X2322834Y3740157D01*
G37*
G36*
G01X2460629Y3740157D02*
G01X2460629Y4133858D01*
G01X2539370Y4133858D01*
G01X2539370Y3740157D01*
G01X2460629Y3740157D01*
G37*
G36*
G01X2598425Y3740157D02*
G01X2598425Y4133858D01*
G01X2677165Y4133858D01*
G01X2677165Y3740157D01*
G01X2598425Y3740157D01*
G37*
G36*
G01X2736220Y3740157D02*
G01X2736220Y4133858D01*
G01X2814960Y4133858D01*
G01X2814960Y3740157D01*
G01X2736220Y3740157D01*
G37*
G36*
G01X2874015Y3740157D02*
G01X2874015Y4133858D01*
G01X2952755Y4133858D01*
G01X2952755Y3740157D01*
G01X2874015Y3740157D01*
G37*
G36*
G01X3011811Y3740157D02*
G01X3011811Y4133858D01*
G01X3090551Y4133858D01*
G01X3090551Y3740157D01*
G01X3011811Y3740157D01*
G37*
G36*
G01X3149606Y3740157D02*
G01X3149606Y4133858D01*
G01X3228346Y4133858D01*
G01X3228346Y3740157D01*
G01X3149606Y3740157D01*
G37*
G36*
G01X3287401Y3740157D02*
G01X3287401Y4133858D01*
G01X3366141Y4133858D01*
G01X3366141Y3740157D01*
G01X3287401Y3740157D01*
G37*
G36*
G01X3425196Y3740157D02*
G01X3425196Y4133858D01*
G01X3503937Y4133858D01*
G01X3503937Y3740157D01*
G01X3425196Y3740157D01*
G37*
G36*
G01X3562992Y3740157D02*
G01X3562992Y4133858D01*
G01X3641732Y4133858D01*
G01X3641732Y3740157D01*
G01X3562992Y3740157D01*
G37*
G36*
G01X3700787Y3740157D02*
G01X3700787Y4133858D01*
G01X3779527Y4133858D01*
G01X3779527Y3740157D01*
G01X3700787Y3740157D01*
G37*
G36*
G01X3838582Y3740157D02*
G01X3838582Y4133858D01*
G01X3917322Y4133858D01*
G01X3917322Y3740157D01*
G01X3838582Y3740157D01*
G37*
G36*
G01X3976377Y3740157D02*
G01X3976377Y4133858D01*
G01X4055118Y4133858D01*
G01X4055118Y3740157D01*
G01X3976377Y3740157D01*
G37*
G36*
G01X4114173Y3740157D02*
G01X4114173Y4133858D01*
G01X4192913Y4133858D01*
G01X4192913Y3740157D01*
G01X4114173Y3740157D01*
G37*
G36*
G01X4251968Y3740157D02*
G01X4251968Y4133858D01*
G01X4330708Y4133858D01*
G01X4330708Y3740157D01*
G01X4251968Y3740157D01*
G37*
G36*
G01X4389763Y3740157D02*
G01X4389763Y4133858D01*
G01X4468503Y4133858D01*
G01X4468503Y3740157D01*
G01X4389763Y3740157D01*
G37*
G04 Draw part A*
G04 Draw part D2*
G54D11*
G01X4300000Y3100000D03*
G54D12*
G01X4300000Y3000000D03*
G01X4300000Y2900000D03*
G01X4300000Y2800000D03*
G01X4300000Y2700000D03*
G01X4300000Y2600000D03*
G01X4300000Y2500000D03*
G01X4300000Y2400000D03*
G01X4600000Y2400000D03*
G01X4600000Y2500000D03*
G01X4600000Y2600000D03*
G01X4600000Y2700000D03*
G01X4600000Y2800000D03*
G01X4600000Y2900000D03*
G01X4600000Y3000000D03*
G01X4600000Y3100000D03*
G04 Draw part C1*
G54D13*
G01X4400000Y3300000D03*
G01X4600000Y3300000D03*
G04 Draw part C2*
G01X3900000Y2900000D03*
G01X3900000Y2700000D03*

G04 Draw traces*
G54D14*
G01X2980000Y3610000D03*
G54D15*
G01X2980000Y3610000D02*
G01X2980000Y3240000D01*
G54D14*
G01X2980000Y3240000D03*
G01X2950000Y2560000D03*
G54D15*
G01X2950000Y2560000D02*
G01X3400000Y2560000D01*
G01X3400000Y2560000D02*
G01X3400000Y2500000D01*
G01X2362204Y3937007D02*
G01X2370000Y3790000D01*
G01X2370000Y3790000D02*
G01X2370000Y3610000D01*
G01X2370000Y3610000D02*
G01X2250000Y3490000D01*
G01X2250000Y3490000D02*
G01X2250000Y2980000D01*
G01X2250000Y2980000D02*
G01X2200000Y2930000D01*
G01X2200000Y2930000D02*
G01X2200000Y2500000D01*
G01X3500000Y3100000D02*
G01X3600000Y3000000D01*
G01X3600000Y3000000D02*
G01X4280000Y3000000D01*
G01X4280000Y3000000D02*
G01X4300000Y3000000D01*
G54D14*
G01X3610000Y3590000D03*
G54D15*
G01X3610000Y3590000D02*
G01X3610000Y3590000D01*
G01X3610000Y3590000D02*
G01X3610000Y3150000D01*
G01X3610000Y3150000D02*
G01X4050000Y3150000D01*
G54D14*
G01X4050000Y3150000D03*
G54D15*
G01X2637795Y3937007D02*
G01X2630000Y3790000D01*
G01X2630000Y3790000D02*
G01X2630000Y3560000D01*
G01X2630000Y3560000D02*
G01X2630000Y3520000D01*
G01X2630000Y3520000D02*
G01X2550000Y3440000D01*
G01X2550000Y3440000D02*
G01X2550000Y3210000D01*
G01X2550000Y3210000D02*
G01X2550000Y3010000D01*
G01X2550000Y3010000D02*
G01X2300000Y2760000D01*
G01X2300000Y2760000D02*
G01X2300000Y2500000D01*
G54D14*
G01X3600000Y2760000D03*
G54D15*
G01X3600000Y2760000D02*
G01X4110000Y2760000D01*
G01X4110000Y2760000D02*
G01X4170000Y2700000D01*
G01X4170000Y2700000D02*
G01X4300000Y2700000D01*
G01X2913385Y3937007D02*
G01X2910000Y3730000D01*
G01X2910000Y3730000D02*
G01X2910000Y3300000D01*
G01X2910000Y3300000D02*
G01X2850000Y3240000D01*
G01X2850000Y3240000D02*
G01X2850000Y2600000D01*
G01X2850000Y2600000D02*
G01X3650000Y2600000D01*
G54D14*
G01X3650000Y2600000D03*
G01X3930000Y2600000D03*
G54D15*
G01X3930000Y2600000D02*
G01X4180000Y2600000D01*
G01X4180000Y2600000D02*
G01X4230000Y2550000D01*
G01X4230000Y2550000D02*
G01X4460000Y2550000D01*
G01X4460000Y2550000D02*
G01X4610000Y2400000D01*
G01X4610000Y2400000D02*
G01X4600000Y2400000D01*
G54D14*
G01X3810000Y3690000D03*
G54D15*
G01X3810000Y3690000D02*
G01X3810000Y3480000D01*
G54D14*
G01X3810000Y3480000D03*
G01X3810000Y2800000D03*
G54D15*
G01X3810000Y2800000D02*
G01X4300000Y2800000D01*
G01X3600000Y2500000D02*
G01X3700000Y2500000D01*
G01X4600000Y3300000D02*
G01X4600000Y3100000D01*
G01X3900000Y2700000D02*
G01X3890000Y2690000D01*
G01X3890000Y2690000D02*
G01X3700000Y2500000D01*
G01X4300000Y3100000D02*
G01X4590000Y3100000D01*
G01X4590000Y3100000D02*
G01X4600000Y3100000D01*
G01X3500000Y2500000D02*
G01X3480000Y2500000D01*
G01X3480000Y2500000D02*
G01X3540000Y2440000D01*
G01X3540000Y2440000D02*
G01X4240000Y2440000D01*
G01X4240000Y2440000D02*
G01X4300000Y2500000D01*
G01X2775590Y3937007D02*
G01X2780000Y3770000D01*
G01X2780000Y3770000D02*
G01X2780000Y3570000D01*
G01X2780000Y3570000D02*
G01X2650000Y3440000D01*
G01X2650000Y3440000D02*
G01X2650000Y2910000D01*
G01X2650000Y2910000D02*
G01X2500000Y2760000D01*
G01X2500000Y2760000D02*
G01X2500000Y2500000D01*
G01X3700000Y3100000D02*
G01X4040000Y3100000D01*
G54D14*
G01X4040000Y3100000D03*
G54D15*
G01X4600000Y2600000D02*
G01X4600000Y2600000D01*
G01X4600000Y2600000D02*
G01X4550000Y2650000D01*
G01X4550000Y2650000D02*
G01X4200000Y2650000D01*
G01X4200000Y2650000D02*
G01X4190000Y2640000D01*
G01X4190000Y2640000D02*
G01X3980000Y2640000D01*
G54D14*
G01X3980000Y2640000D03*
G01X3710000Y2640000D03*
G54D15*
G01X3710000Y2640000D02*
G01X2900000Y2640000D01*
G01X2900000Y2640000D02*
G01X2900000Y3100000D01*
G01X3877952Y3937007D02*
G01X3880000Y3860000D01*
G01X3880000Y3860000D02*
G01X3880000Y3740000D01*
G01X3880000Y3740000D02*
G01X4210000Y3410000D01*
G01X4210000Y3410000D02*
G01X4210000Y3090000D01*
G01X4210000Y3090000D02*
G01X4250000Y3050000D01*
G01X4250000Y3050000D02*
G01X4390000Y3050000D01*
G01X4390000Y3050000D02*
G01X4450000Y2990000D01*
G01X4450000Y2990000D02*
G01X4450000Y2750000D01*
G01X4450000Y2750000D02*
G01X4600000Y2600000D01*
G01X3740157Y3937007D02*
G01X3740000Y3750000D01*
G01X3740000Y3750000D02*
G01X3740000Y3200000D01*
G54D14*
G01X3740000Y3200000D03*
G01X3000000Y3200000D03*
G54D15*
G01X3000000Y3200000D02*
G01X3000000Y3110000D01*
G01X3000000Y3110000D02*
G01X3000000Y3100000D01*
G54D14*
G01X2850000Y3560000D03*
G54D15*
G01X2850000Y3560000D02*
G01X2750000Y3460000D01*
G01X2750000Y3460000D02*
G01X2750000Y2860000D01*
G01X2750000Y2860000D02*
G01X2600000Y2710000D01*
G01X2600000Y2710000D02*
G01X2600000Y2500000D01*
G01X3602362Y3937007D02*
G01X3600000Y3770000D01*
G01X3600000Y3770000D02*
G01X3570000Y3740000D01*
G01X3570000Y3740000D02*
G01X3570000Y3170000D01*
G54D14*
G01X3570000Y3170000D03*
G01X3100000Y3170000D03*
G54D15*
G01X3100000Y3170000D02*
G01X3100000Y3110000D01*
G01X3100000Y3110000D02*
G01X3100000Y3100000D01*
G01X3464566Y3937007D02*
G01X3470000Y3770000D01*
G01X3470000Y3770000D02*
G01X3470000Y3240000D01*
G54D14*
G01X3470000Y3240000D03*
G01X3200000Y3240000D03*
G54D15*
G01X3200000Y3240000D02*
G01X3200000Y3100000D01*
G01X3326771Y3937007D02*
G01X3330000Y3760000D01*
G01X3330000Y3760000D02*
G01X3330000Y3170000D01*
G01X3330000Y3170000D02*
G01X3310000Y3150000D01*
G01X3310000Y3150000D02*
G01X3310000Y3110000D01*
G01X3310000Y3110000D02*
G01X3300000Y3100000D01*
G01X3188976Y3937007D02*
G01X3200000Y3810000D01*
G01X3200000Y3810000D02*
G01X3200000Y3330000D01*
G01X3200000Y3330000D02*
G01X3150000Y3280000D01*
G01X3150000Y3280000D02*
G01X3150000Y3020000D01*
G54D14*
G01X3150000Y3020000D03*
G01X3260000Y3710000D03*
G54D15*
G01X3260000Y3710000D02*
G01X3260000Y3160000D01*
G01X3260000Y3160000D02*
G01X3250000Y3150000D01*
G01X3250000Y3150000D02*
G01X3250000Y2730000D01*
G01X3250000Y2730000D02*
G01X3100000Y2730000D01*
G54D14*
G01X3100000Y2730000D03*
G54D15*
G01X4600000Y2900000D02*
G01X4600000Y2920000D01*
G01X4600000Y2920000D02*
G01X4600000Y2800000D01*
G01X2900000Y2500000D02*
G01X2900000Y2490000D01*
G01X2900000Y2490000D02*
G01X2900000Y2440000D01*
G01X2900000Y2440000D02*
G01X2700000Y2440000D01*
G01X2700000Y2440000D02*
G01X2700000Y2500000D01*
G01X4400000Y3300000D02*
G01X4400000Y3320000D01*
G01X4400000Y3320000D02*
G01X4400000Y3380000D01*
G01X4400000Y3380000D02*
G01X4620000Y3380000D01*
G01X4620000Y3380000D02*
G01X4660000Y3340000D01*
G01X4660000Y3340000D02*
G01X4660000Y2960000D01*
G01X4660000Y2960000D02*
G01X4600000Y2900000D01*
G01X4600000Y2800000D02*
G01X4660000Y2740000D01*
G01X4660000Y2740000D02*
G01X4660000Y2360000D01*
G01X4660000Y2360000D02*
G01X4630000Y2330000D01*
G01X4630000Y2330000D02*
G01X4370000Y2330000D01*
G01X4370000Y2330000D02*
G01X4310000Y2390000D01*
G01X4310000Y2390000D02*
G01X4300000Y2400000D01*
G01X4400000Y3300000D02*
G01X4400000Y3290000D01*
G01X4400000Y3290000D02*
G01X4400000Y3570000D01*
G01X4400000Y3570000D02*
G01X4290000Y3680000D01*
G01X4290000Y3680000D02*
G01X4291338Y3937007D01*
G01X2700000Y2500000D02*
G01X2700000Y2490000D01*
G01X2700000Y2490000D02*
G01X2700000Y2440000D01*
G01X2700000Y2440000D02*
G01X2120000Y2440000D01*
G01X2120000Y2440000D02*
G01X2120000Y3020000D01*
G01X2120000Y3020000D02*
G01X2200000Y3100000D01*
G01X4300000Y2400000D02*
G01X4300000Y2400000D01*
G01X4300000Y2400000D02*
G01X2940000Y2400000D01*
G01X2940000Y2400000D02*
G01X2900000Y2440000D01*
G01X2900000Y2440000D02*
G01X2900000Y2500000D01*
G54D14*
G01X3040000Y3610000D03*
G54D15*
G01X3040000Y3610000D02*
G01X3040000Y3360000D01*
G54D14*
G01X3040000Y3360000D03*
G01X3530000Y3710000D03*
G54D15*
G01X3530000Y3710000D02*
G01X3530000Y3250000D01*
G01X3530000Y3250000D02*
G01X3450000Y3170000D01*
G01X3450000Y3170000D02*
G01X3450000Y2680000D01*
G01X3450000Y2680000D02*
G01X3000000Y2680000D01*
G54D14*
G01X3000000Y2680000D03*
G01X3360000Y3640000D03*
G54D15*
G01X3360000Y3640000D02*
G01X3360000Y3140000D01*
G01X3360000Y3140000D02*
G01X3400000Y3100000D01*
G01X2500000Y3937007D02*
G01X2500000Y3540000D01*
G01X2500000Y3540000D02*
G01X2400000Y3440000D01*
G01X2400000Y3440000D02*
G01X2400000Y3420000D01*
G01X2400000Y3420000D02*
G01X2400000Y3100000D01*
G01X3051181Y3937007D02*
G01X3070000Y3740000D01*
G01X3070000Y3740000D02*
G01X3090000Y3720000D01*
G01X3090000Y3720000D02*
G01X3090000Y3260000D01*
G01X3090000Y3260000D02*
G01X3050000Y3220000D01*
G01X3050000Y3220000D02*
G01X3050000Y3010000D01*
G01X3050000Y3010000D02*
G01X3050000Y2980000D01*
G01X3050000Y2980000D02*
G01X3200000Y2980000D01*
G54D14*
G01X3200000Y2980000D03*

G04 Draw Text*
M00*
M02*
