G04 FreePCB version 1.200*
G04 \\DISKSTATION\museum\Computers\RK86\Clones\Apogey BK-01\RomDisk\My\CAM\bottom_silk.grb*
G04 bottom silk layer *
G04 Scale: 100 percent, Rotated: No, Reflected: No *
%FSLAX26Y26*%
%MOIN*%
%LNTop*%
%ADD10C,0.005000*%
%ADD11C,0.007000*%
%ADD12C,0.010000*%
G90*
G70D02*

G04 ----------------------- Draw board outline (positive)*
%LPD*%
G54D10*
G01X2310000Y4140000D02*
G01X4490000Y4140000D01*
G04 end of side 1*
G01X4490000Y3640000D01*
G04 end of side 2*
G01X4800000Y3330000D01*
G04 end of side 3*
G01X4800000Y2190000D01*
G04 end of side 4*
G01X2000000Y2190000D01*
G04 end of side 5*
G01X2000000Y3330000D01*
G04 end of side 6*
G01X2300000Y3630000D01*
G04 end of side 7*
G01X2300000Y4140000D01*
G04 end of side 8*
G01X2320000Y4140000D01*
G04 end of side 9*
G01X2310000Y4140000D01*

G04 -------------- Draw Parts, Pads, Traces, Vias and Text (positive)*
%LPD*%
G04 Draw part D1*
G04 Draw part B*
G04 Draw part A*
G04 draw part outline for part A*
G04 draw reference designator for part A*
G54D11*
G01X2418181Y3652272D02*
G01X2400000Y3700000D01*
G01X2418181Y3652272D02*
G01X2436363Y3700000D01*
G01X2429545Y3684090D02*
G01X2406818Y3684090D01*
G04 Draw part D2*
G04 Draw part C1*
G04 Draw part C2*

G04 Draw traces*

G04 Draw Text*
G54D12*
G01X4247272Y2268181D02*
G01X4320000Y2309090D01*
G01X4320000Y2309090D02*
G01X4247272Y2350000D01*
G01X4147272Y2254545D02*
G01X4147272Y2350000D01*
G01X4210909Y2254545D02*
G01X4147272Y2318181D01*
G01X4170000Y2295454D02*
G01X4210909Y2350000D01*
G01X4047272Y2254545D02*
G01X4047272Y2350000D01*
G01X4047272Y2254545D02*
G01X4088181Y2254545D01*
G01X4088181Y2254545D02*
G01X4101818Y2259090D01*
G01X4101818Y2259090D02*
G01X4106363Y2263636D01*
G01X4106363Y2263636D02*
G01X4110909Y2272727D01*
G01X4110909Y2272727D02*
G01X4110909Y2281818D01*
G01X4110909Y2281818D02*
G01X4106363Y2290909D01*
G01X4106363Y2290909D02*
G01X4101818Y2295454D01*
G01X4101818Y2295454D02*
G01X4088181Y2300000D01*
G01X4047272Y2300000D02*
G01X4088181Y2300000D01*
G01X4088181Y2300000D02*
G01X4101818Y2304545D01*
G01X4101818Y2304545D02*
G01X4106363Y2309090D01*
G01X4106363Y2309090D02*
G01X4110909Y2318181D01*
G01X4110909Y2318181D02*
G01X4110909Y2331818D01*
G01X4110909Y2331818D02*
G01X4106363Y2340909D01*
G01X4106363Y2340909D02*
G01X4101818Y2345454D01*
G01X4101818Y2345454D02*
G01X4088181Y2350000D01*
G01X4088181Y2350000D02*
G01X4047272Y2350000D01*
G01X4010909Y2268181D02*
G01X3938181Y2309090D01*
G01X3938181Y2309090D02*
G01X4010909Y2350000D01*
G01X3792727Y2277272D02*
G01X3788181Y2268181D01*
G01X3788181Y2268181D02*
G01X3779090Y2259090D01*
G01X3779090Y2259090D02*
G01X3770000Y2254545D01*
G01X3770000Y2254545D02*
G01X3751818Y2254545D01*
G01X3751818Y2254545D02*
G01X3742727Y2259090D01*
G01X3742727Y2259090D02*
G01X3733636Y2268181D01*
G01X3733636Y2268181D02*
G01X3729090Y2277272D01*
G01X3729090Y2277272D02*
G01X3724545Y2290909D01*
G01X3724545Y2290909D02*
G01X3724545Y2313636D01*
G01X3724545Y2313636D02*
G01X3729090Y2327272D01*
G01X3729090Y2327272D02*
G01X3733636Y2336363D01*
G01X3733636Y2336363D02*
G01X3742727Y2345454D01*
G01X3742727Y2345454D02*
G01X3751818Y2350000D01*
G01X3751818Y2350000D02*
G01X3770000Y2350000D01*
G01X3770000Y2350000D02*
G01X3779090Y2345454D01*
G01X3779090Y2345454D02*
G01X3788181Y2336363D01*
G01X3788181Y2336363D02*
G01X3792727Y2327272D01*
G01X3792727Y2327272D02*
G01X3792727Y2313636D01*
G01X3770000Y2313636D02*
G01X3792727Y2313636D01*
G01X3510909Y2268181D02*
G01X3583636Y2309090D01*
G01X3583636Y2309090D02*
G01X3510909Y2350000D01*
G01X3410909Y2254545D02*
G01X3410909Y2350000D01*
G01X3474545Y2254545D02*
G01X3410909Y2318181D01*
G01X3433636Y2295454D02*
G01X3474545Y2350000D01*
G01X3310909Y2254545D02*
G01X3310909Y2350000D01*
G01X3310909Y2254545D02*
G01X3351818Y2254545D01*
G01X3351818Y2254545D02*
G01X3365454Y2259090D01*
G01X3365454Y2259090D02*
G01X3370000Y2263636D01*
G01X3370000Y2263636D02*
G01X3374545Y2272727D01*
G01X3374545Y2272727D02*
G01X3374545Y2281818D01*
G01X3374545Y2281818D02*
G01X3370000Y2290909D01*
G01X3370000Y2290909D02*
G01X3365454Y2295454D01*
G01X3365454Y2295454D02*
G01X3351818Y2300000D01*
G01X3310909Y2300000D02*
G01X3351818Y2300000D01*
G01X3351818Y2300000D02*
G01X3365454Y2304545D01*
G01X3365454Y2304545D02*
G01X3370000Y2309090D01*
G01X3370000Y2309090D02*
G01X3374545Y2318181D01*
G01X3374545Y2318181D02*
G01X3374545Y2331818D01*
G01X3374545Y2331818D02*
G01X3370000Y2340909D01*
G01X3370000Y2340909D02*
G01X3365454Y2345454D01*
G01X3365454Y2345454D02*
G01X3351818Y2350000D01*
G01X3351818Y2350000D02*
G01X3310909Y2350000D01*
G01X3274545Y2268181D02*
G01X3201818Y2309090D01*
G01X3201818Y2309090D02*
G01X3274545Y2350000D01*
G01X3020000Y2254545D02*
G01X3006363Y2259090D01*
G01X3006363Y2259090D02*
G01X2997272Y2272727D01*
G01X2997272Y2272727D02*
G01X2992727Y2295454D01*
G01X2992727Y2295454D02*
G01X2992727Y2309090D01*
G01X2992727Y2309090D02*
G01X2997272Y2331818D01*
G01X2997272Y2331818D02*
G01X3006363Y2345454D01*
G01X3006363Y2345454D02*
G01X3020000Y2350000D01*
G01X3020000Y2350000D02*
G01X3029090Y2350000D01*
G01X3029090Y2350000D02*
G01X3042727Y2345454D01*
G01X3042727Y2345454D02*
G01X3051818Y2331818D01*
G01X3051818Y2331818D02*
G01X3056363Y2309090D01*
G01X3056363Y2309090D02*
G01X3056363Y2295454D01*
G01X3056363Y2295454D02*
G01X3051818Y2272727D01*
G01X3051818Y2272727D02*
G01X3042727Y2259090D01*
G01X3042727Y2259090D02*
G01X3029090Y2254545D01*
G01X3029090Y2254545D02*
G01X3020000Y2254545D01*
G01X2920000Y2254545D02*
G01X2906363Y2259090D01*
G01X2906363Y2259090D02*
G01X2897272Y2272727D01*
G01X2897272Y2272727D02*
G01X2892727Y2295454D01*
G01X2892727Y2295454D02*
G01X2892727Y2309090D01*
G01X2892727Y2309090D02*
G01X2897272Y2331818D01*
G01X2897272Y2331818D02*
G01X2906363Y2345454D01*
G01X2906363Y2345454D02*
G01X2920000Y2350000D01*
G01X2920000Y2350000D02*
G01X2929090Y2350000D01*
G01X2929090Y2350000D02*
G01X2942727Y2345454D01*
G01X2942727Y2345454D02*
G01X2951818Y2331818D01*
G01X2951818Y2331818D02*
G01X2956363Y2309090D01*
G01X2956363Y2309090D02*
G01X2956363Y2295454D01*
G01X2956363Y2295454D02*
G01X2951818Y2272727D01*
G01X2951818Y2272727D02*
G01X2942727Y2259090D01*
G01X2942727Y2259090D02*
G01X2929090Y2254545D01*
G01X2929090Y2254545D02*
G01X2920000Y2254545D01*
G01X2833636Y2272727D02*
G01X2842727Y2268181D01*
G01X2842727Y2268181D02*
G01X2856363Y2254545D01*
G01X2856363Y2254545D02*
G01X2856363Y2350000D01*
G01X2797272Y2345454D02*
G01X2792727Y2350000D01*
G01X2792727Y2350000D02*
G01X2788181Y2345454D01*
G01X2788181Y2345454D02*
G01X2792727Y2340909D01*
G01X2792727Y2340909D02*
G01X2797272Y2345454D01*
G01X2797272Y2345454D02*
G01X2797272Y2354545D01*
G01X2797272Y2354545D02*
G01X2792727Y2363636D01*
G01X2792727Y2363636D02*
G01X2788181Y2368181D01*
G01X2715454Y2254545D02*
G01X2701818Y2259090D01*
G01X2701818Y2259090D02*
G01X2692727Y2272727D01*
G01X2692727Y2272727D02*
G01X2688181Y2295454D01*
G01X2688181Y2295454D02*
G01X2688181Y2309090D01*
G01X2688181Y2309090D02*
G01X2692727Y2331818D01*
G01X2692727Y2331818D02*
G01X2701818Y2345454D01*
G01X2701818Y2345454D02*
G01X2715454Y2350000D01*
G01X2715454Y2350000D02*
G01X2724545Y2350000D01*
G01X2724545Y2350000D02*
G01X2738181Y2345454D01*
G01X2738181Y2345454D02*
G01X2747272Y2331818D01*
G01X2747272Y2331818D02*
G01X2751818Y2309090D01*
G01X2751818Y2309090D02*
G01X2751818Y2295454D01*
G01X2751818Y2295454D02*
G01X2747272Y2272727D01*
G01X2747272Y2272727D02*
G01X2738181Y2259090D01*
G01X2738181Y2259090D02*
G01X2724545Y2254545D01*
G01X2724545Y2254545D02*
G01X2715454Y2254545D01*
G01X2588181Y2254545D02*
G01X2588181Y2350000D01*
G01X2588181Y2254545D02*
G01X2629090Y2254545D01*
G01X2629090Y2254545D02*
G01X2642727Y2259090D01*
G01X2642727Y2259090D02*
G01X2647272Y2263636D01*
G01X2647272Y2263636D02*
G01X2651818Y2272727D01*
G01X2651818Y2272727D02*
G01X2651818Y2281818D01*
G01X2651818Y2281818D02*
G01X2647272Y2290909D01*
G01X2647272Y2290909D02*
G01X2642727Y2295454D01*
G01X2642727Y2295454D02*
G01X2629090Y2300000D01*
G01X2629090Y2300000D02*
G01X2588181Y2300000D01*
G01X2620000Y2300000D02*
G01X2651818Y2350000D01*
G01X2447272Y2286363D02*
G01X2442727Y2290909D01*
G01X2442727Y2290909D02*
G01X2447272Y2295454D01*
G01X2447272Y2295454D02*
G01X2451818Y2290909D01*
G01X2451818Y2290909D02*
G01X2447272Y2286363D01*
G01X2447272Y2340909D02*
G01X2442727Y2345454D01*
G01X2442727Y2345454D02*
G01X2447272Y2350000D01*
G01X2447272Y2350000D02*
G01X2451818Y2345454D01*
G01X2451818Y2345454D02*
G01X2447272Y2340909D01*
G01X2383636Y2254545D02*
G01X2383636Y2331818D01*
G01X2383636Y2331818D02*
G01X2388181Y2345454D01*
G01X2388181Y2345454D02*
G01X2397272Y2350000D01*
G01X2397272Y2350000D02*
G01X2406363Y2350000D01*
G01X2370000Y2286363D02*
G01X2401818Y2286363D01*
G01X2297272Y2286363D02*
G01X2297272Y2350000D01*
G01X2297272Y2313636D02*
G01X2301818Y2300000D01*
G01X2301818Y2300000D02*
G01X2310909Y2290909D01*
G01X2310909Y2290909D02*
G01X2320000Y2286363D01*
G01X2320000Y2286363D02*
G01X2333636Y2286363D01*
G01X2260909Y2286363D02*
G01X2260909Y2350000D01*
G01X2260909Y2300000D02*
G01X2251818Y2290909D01*
G01X2251818Y2290909D02*
G01X2242727Y2286363D01*
G01X2242727Y2286363D02*
G01X2229090Y2286363D01*
G01X2229090Y2286363D02*
G01X2220000Y2290909D01*
G01X2220000Y2290909D02*
G01X2210909Y2300000D01*
G01X2210909Y2300000D02*
G01X2206363Y2313636D01*
G01X2206363Y2313636D02*
G01X2206363Y2322727D01*
G01X2206363Y2322727D02*
G01X2210909Y2336363D01*
G01X2210909Y2336363D02*
G01X2220000Y2345454D01*
G01X2220000Y2345454D02*
G01X2229090Y2350000D01*
G01X2229090Y2350000D02*
G01X2242727Y2350000D01*
G01X2242727Y2350000D02*
G01X2251818Y2345454D01*
G01X2251818Y2345454D02*
G01X2260909Y2336363D01*
G01X2147272Y2254545D02*
G01X2147272Y2331818D01*
G01X2147272Y2331818D02*
G01X2151818Y2345454D01*
G01X2151818Y2345454D02*
G01X2160909Y2350000D01*
G01X2160909Y2350000D02*
G01X2170000Y2350000D01*
G01X2133636Y2286363D02*
G01X2165454Y2286363D01*
G01X2097272Y2268181D02*
G01X2088181Y2259090D01*
G01X2088181Y2259090D02*
G01X2074545Y2254545D01*
G01X2074545Y2254545D02*
G01X2056363Y2254545D01*
G01X2056363Y2254545D02*
G01X2042727Y2259090D01*
G01X2042727Y2259090D02*
G01X2033636Y2268181D01*
G01X2033636Y2268181D02*
G01X2033636Y2277272D01*
G01X2033636Y2277272D02*
G01X2038181Y2286363D01*
G01X2038181Y2286363D02*
G01X2042727Y2290909D01*
G01X2042727Y2290909D02*
G01X2051818Y2295454D01*
G01X2051818Y2295454D02*
G01X2079090Y2304545D01*
G01X2079090Y2304545D02*
G01X2088181Y2309090D01*
G01X2088181Y2309090D02*
G01X2092727Y2313636D01*
G01X2092727Y2313636D02*
G01X2097272Y2322727D01*
G01X2097272Y2322727D02*
G01X2097272Y2336363D01*
G01X2097272Y2336363D02*
G01X2088181Y2345454D01*
G01X2088181Y2345454D02*
G01X2074545Y2350000D01*
G01X2074545Y2350000D02*
G01X2056363Y2350000D01*
G01X2056363Y2350000D02*
G01X2042727Y2345454D01*
G01X2042727Y2345454D02*
G01X2033636Y2336363D01*
M00*
M02*
