G04 FreePCB version 1.200*
G04 \\DISKSTATION\museum\Computers\RK86\Clones\Apogey BK-01\RomDisk\My\CAM\bottom_copper.grb*
G04 bottom copper layer *
G04 Scale: 100 percent, Rotated: No, Reflected: No *
%FSLAX26Y26*%
%MOIN*%
%LNTop*%
%ADD10C,0.005000*%
%ADD11R,0.055000X0.055000*%
%ADD12C,0.055000*%
%ADD13C,0.075000*%
%ADD14C,0.010000*%
%ADD15C,0.028000*%
G90*
G70D02*

G04 ----------------------- Draw board outline (positive)*
%LPD*%
G54D10*
G01X2310000Y4140000D02*
G01X4490000Y4140000D01*
G04 end of side 1*
G01X4490000Y3640000D01*
G04 end of side 2*
G01X4800000Y3330000D01*
G04 end of side 3*
G01X4800000Y2190000D01*
G04 end of side 4*
G01X2000000Y2190000D01*
G04 end of side 5*
G01X2000000Y3330000D01*
G04 end of side 6*
G01X2300000Y3630000D01*
G04 end of side 7*
G01X2300000Y4140000D01*
G04 end of side 8*
G01X2320000Y4140000D01*
G04 end of side 9*
G01X2310000Y4140000D01*

G04 ----------------------- Draw copper areas (positive)*
%LPD*%

G04 -------------- Draw Parts, Pads, Traces, Vias and Text (positive)*
%LPD*%
G04 Draw part D1*
G54D11*
G01X3700000Y3100000D03*
G54D12*
G01X3600000Y3100000D03*
G01X3500000Y3100000D03*
G01X3400000Y3100000D03*
G01X3300000Y3100000D03*
G01X3200000Y3100000D03*
G01X3100000Y3100000D03*
G01X3000000Y3100000D03*
G01X2900000Y3100000D03*
G01X2800000Y3100000D03*
G01X2700000Y3100000D03*
G01X2600000Y3100000D03*
G01X2500000Y3100000D03*
G01X2400000Y3100000D03*
G01X2300000Y3100000D03*
G01X2200000Y3100000D03*
G01X2200000Y2500000D03*
G01X2300000Y2500000D03*
G01X2400000Y2500000D03*
G01X2500000Y2500000D03*
G01X2600000Y2500000D03*
G01X2700000Y2500000D03*
G01X2800000Y2500000D03*
G01X2900000Y2500000D03*
G01X3000000Y2500000D03*
G01X3100000Y2500000D03*
G01X3200000Y2500000D03*
G01X3300000Y2500000D03*
G01X3400000Y2500000D03*
G01X3500000Y2500000D03*
G01X3600000Y2500000D03*
G01X3700000Y2500000D03*
G04 Draw part B*
G04 Draw part A*
G36*
G01X2391732Y3740157D02*
G01X2391732Y4133858D01*
G01X2470472Y4133858D01*
G01X2470472Y3740157D01*
G01X2391732Y3740157D01*
G37*
G36*
G01X2529527Y3740157D02*
G01X2529527Y4133858D01*
G01X2608267Y4133858D01*
G01X2608267Y3740157D01*
G01X2529527Y3740157D01*
G37*
G36*
G01X2667322Y3740157D02*
G01X2667322Y4133858D01*
G01X2746062Y4133858D01*
G01X2746062Y3740157D01*
G01X2667322Y3740157D01*
G37*
G36*
G01X2805118Y3740157D02*
G01X2805118Y4133858D01*
G01X2883858Y4133858D01*
G01X2883858Y3740157D01*
G01X2805118Y3740157D01*
G37*
G36*
G01X2942913Y3740157D02*
G01X2942913Y4133858D01*
G01X3021653Y4133858D01*
G01X3021653Y3740157D01*
G01X2942913Y3740157D01*
G37*
G36*
G01X3080708Y3740157D02*
G01X3080708Y4133858D01*
G01X3159448Y4133858D01*
G01X3159448Y3740157D01*
G01X3080708Y3740157D01*
G37*
G36*
G01X3218503Y3740157D02*
G01X3218503Y4133858D01*
G01X3297244Y4133858D01*
G01X3297244Y3740157D01*
G01X3218503Y3740157D01*
G37*
G36*
G01X3356299Y3740157D02*
G01X3356299Y4133858D01*
G01X3435039Y4133858D01*
G01X3435039Y3740157D01*
G01X3356299Y3740157D01*
G37*
G36*
G01X3494094Y3740157D02*
G01X3494094Y4133858D01*
G01X3572834Y4133858D01*
G01X3572834Y3740157D01*
G01X3494094Y3740157D01*
G37*
G36*
G01X3631889Y3740157D02*
G01X3631889Y4133858D01*
G01X3710629Y4133858D01*
G01X3710629Y3740157D01*
G01X3631889Y3740157D01*
G37*
G36*
G01X3769685Y3740157D02*
G01X3769685Y4133858D01*
G01X3848425Y4133858D01*
G01X3848425Y3740157D01*
G01X3769685Y3740157D01*
G37*
G36*
G01X3907480Y3740157D02*
G01X3907480Y4133858D01*
G01X3986220Y4133858D01*
G01X3986220Y3740157D01*
G01X3907480Y3740157D01*
G37*
G36*
G01X4045275Y3740157D02*
G01X4045275Y4133858D01*
G01X4124015Y4133858D01*
G01X4124015Y3740157D01*
G01X4045275Y3740157D01*
G37*
G36*
G01X4183070Y3740157D02*
G01X4183070Y4133858D01*
G01X4261811Y4133858D01*
G01X4261811Y3740157D01*
G01X4183070Y3740157D01*
G37*
G36*
G01X4320866Y3740157D02*
G01X4320866Y4133858D01*
G01X4399606Y4133858D01*
G01X4399606Y3740157D01*
G01X4320866Y3740157D01*
G37*
G04 Draw part D2*
G54D11*
G01X4300000Y3100000D03*
G54D12*
G01X4300000Y3000000D03*
G01X4300000Y2900000D03*
G01X4300000Y2800000D03*
G01X4300000Y2700000D03*
G01X4300000Y2600000D03*
G01X4300000Y2500000D03*
G01X4300000Y2400000D03*
G01X4600000Y2400000D03*
G01X4600000Y2500000D03*
G01X4600000Y2600000D03*
G01X4600000Y2700000D03*
G01X4600000Y2800000D03*
G01X4600000Y2900000D03*
G01X4600000Y3000000D03*
G01X4600000Y3100000D03*
G04 Draw part C1*
G54D13*
G01X4400000Y3300000D03*
G01X4600000Y3300000D03*
G04 Draw part C2*
G01X3900000Y2900000D03*
G01X3900000Y2700000D03*

G04 Draw traces*
G54D14*
G01X2982283Y3937007D02*
G01X2980000Y3610000D01*
G54D15*
G01X2980000Y3610000D03*
G01X2980000Y3240000D03*
G54D14*
G01X2980000Y3240000D02*
G01X2950000Y3210000D01*
G01X2950000Y3210000D02*
G01X2950000Y2960000D01*
G01X2950000Y2960000D02*
G01X2950000Y2560000D01*
G54D15*
G01X2950000Y2560000D03*
G54D14*
G01X3671259Y3937007D02*
G01X3670000Y3810000D01*
G01X3670000Y3810000D02*
G01X3670000Y3650000D01*
G01X3670000Y3650000D02*
G01X3650000Y3630000D01*
G01X3650000Y3630000D02*
G01X3610000Y3590000D01*
G01X3610000Y3590000D02*
G01X3610000Y3590000D01*
G01X3610000Y3590000D02*
G01X3610000Y3590000D01*
G54D15*
G01X3610000Y3590000D03*
G01X4050000Y3150000D03*
G54D14*
G01X4050000Y3150000D02*
G01X4300000Y2900000D01*
G01X3671259Y3937007D02*
G01X3670000Y3780000D01*
G01X3670000Y3780000D02*
G01X3670000Y3650000D01*
G01X3670000Y3650000D02*
G01X3590000Y3570000D01*
G01X3590000Y3570000D02*
G01X2910000Y3570000D01*
G01X2910000Y3570000D02*
G01X2600000Y3260000D01*
G01X2600000Y3260000D02*
G01X2600000Y3100000D01*
G01X3600000Y3100000D02*
G01X3600000Y2760000D01*
G54D15*
G01X3600000Y2760000D03*
G01X3650000Y2600000D03*
G54D14*
G01X3650000Y2600000D02*
G01X3930000Y2600000D01*
G54D15*
G01X3930000Y2600000D03*
G54D14*
G01X3809055Y3937007D02*
G01X3810000Y3790000D01*
G01X3810000Y3790000D02*
G01X3810000Y3690000D01*
G54D15*
G01X3810000Y3690000D03*
G01X3810000Y3480000D03*
G54D14*
G01X3810000Y3480000D02*
G01X3810000Y2800000D01*
G54D15*
G01X3810000Y2800000D03*
G54D14*
G01X2700000Y3100000D02*
G01X2700000Y3260000D01*
G01X2700000Y3260000D02*
G01X2940000Y3500000D01*
G01X2940000Y3500000D02*
G01X3590000Y3500000D01*
G01X3590000Y3500000D02*
G01X3630000Y3500000D01*
G01X3630000Y3500000D02*
G01X3810000Y3680000D01*
G01X3810000Y3680000D02*
G01X3810000Y3720000D01*
G01X3810000Y3720000D02*
G01X3810000Y3780000D01*
G01X3810000Y3780000D02*
G01X3809055Y3937007D01*
G01X4600000Y3300000D02*
G01X4220000Y3680000D01*
G01X4220000Y3680000D02*
G01X4220000Y3800000D01*
G01X4220000Y3800000D02*
G01X4222440Y3937007D01*
G01X4600000Y3100000D02*
G01X4660664Y3057938D01*
G01X4660664Y3057938D02*
G01X4660000Y2360000D01*
G01X4660000Y2360000D02*
G01X4630000Y2330000D01*
G01X4630000Y2330000D02*
G01X3880000Y2330000D01*
G01X3880000Y2330000D02*
G01X3870000Y2330000D01*
G01X3870000Y2330000D02*
G01X3700000Y2500000D01*
G01X2706692Y3937007D02*
G01X2700000Y3790000D01*
G01X2700000Y3790000D02*
G01X2700000Y3450000D01*
G01X2700000Y3450000D02*
G01X2550000Y3300000D01*
G01X2550000Y3300000D02*
G01X2550000Y2960000D01*
G01X2550000Y2960000D02*
G01X2400000Y2810000D01*
G01X2400000Y2810000D02*
G01X2400000Y2500000D01*
G01X3946850Y3937007D02*
G01X3950000Y3760000D01*
G01X3950000Y3760000D02*
G01X3950000Y2950000D01*
G01X3950000Y2950000D02*
G01X4300000Y2600000D01*
G01X3946850Y3937007D02*
G01X3940000Y3790000D01*
G01X3940000Y3790000D02*
G01X3940000Y3710000D01*
G01X3940000Y3710000D02*
G01X3670000Y3440000D01*
G01X3670000Y3440000D02*
G01X3590000Y3440000D01*
G01X3590000Y3440000D02*
G01X2980000Y3440000D01*
G01X2980000Y3440000D02*
G01X2800000Y3260000D01*
G01X2800000Y3260000D02*
G01X2800000Y3100000D01*
G54D15*
G01X4040000Y3100000D03*
G54D14*
G01X4040000Y3100000D02*
G01X4040000Y2960000D01*
G01X4040000Y2960000D02*
G01X4250000Y2750000D01*
G01X4250000Y2750000D02*
G01X4350000Y2750000D01*
G01X4350000Y2750000D02*
G01X4600000Y2500000D01*
G54D15*
G01X3980000Y2640000D03*
G54D14*
G01X3980000Y2640000D02*
G01X3710000Y2640000D01*
G54D15*
G01X3710000Y2640000D03*
G01X3740000Y3200000D03*
G54D14*
G01X3740000Y3200000D02*
G01X3000000Y3200000D01*
G54D15*
G01X3000000Y3200000D03*
G54D14*
G01X2844488Y3937007D02*
G01X2850000Y3780000D01*
G01X2850000Y3780000D02*
G01X2850000Y3560000D01*
G54D15*
G01X2850000Y3560000D03*
G01X3570000Y3170000D03*
G54D14*
G01X3570000Y3170000D02*
G01X3100000Y3170000D01*
G54D15*
G01X3100000Y3170000D03*
G01X3470000Y3240000D03*
G54D14*
G01X3470000Y3240000D02*
G01X3200000Y3240000D01*
G54D15*
G01X3200000Y3240000D03*
G01X3150000Y3020000D03*
G54D14*
G01X3150000Y3020000D02*
G01X3150000Y2550000D01*
G01X3150000Y2550000D02*
G01X3200000Y2500000D01*
G01X3257874Y3937007D02*
G01X3260000Y3780000D01*
G01X3260000Y3780000D02*
G01X3260000Y3710000D01*
G54D15*
G01X3260000Y3710000D03*
G01X3100000Y2730000D03*
G54D14*
G01X3100000Y2730000D02*
G01X3100000Y2500000D01*
G01X3900000Y2900000D02*
G01X3910000Y2890000D01*
G01X3910000Y2890000D02*
G01X4040000Y2760000D01*
G01X4040000Y2760000D02*
G01X4040000Y2600000D01*
G01X4040000Y2600000D02*
G01X4240000Y2400000D01*
G01X4240000Y2400000D02*
G01X4300000Y2400000D01*
G01X3395669Y3937007D02*
G01X3400000Y3770000D01*
G01X3400000Y3770000D02*
G01X3400000Y3610000D01*
G01X3400000Y3610000D02*
G01X3040000Y3610000D01*
G54D15*
G01X3040000Y3610000D03*
G01X3040000Y3360000D03*
G54D14*
G01X3040000Y3360000D02*
G01X2850000Y3170000D01*
G01X2850000Y3170000D02*
G01X2850000Y2680000D01*
G01X2850000Y2680000D02*
G01X2800000Y2630000D01*
G01X2800000Y2630000D02*
G01X2800000Y2500000D01*
G01X3533464Y3937007D02*
G01X3530000Y3760000D01*
G01X3530000Y3760000D02*
G01X3530000Y3710000D01*
G54D15*
G01X3530000Y3710000D03*
G01X3000000Y2680000D03*
G54D14*
G01X3000000Y2680000D02*
G01X3000000Y2500000D01*
G01X2568897Y3937007D02*
G01X2580000Y3760000D01*
G01X2580000Y3760000D02*
G01X2580000Y3480000D01*
G01X2580000Y3480000D02*
G01X2500000Y3400000D01*
G01X2500000Y3400000D02*
G01X2500000Y3100000D01*
G01X3120078Y3937007D02*
G01X3120000Y3800000D01*
G01X3120000Y3800000D02*
G01X3120000Y3640000D01*
G01X3120000Y3640000D02*
G01X3360000Y3640000D01*
G54D15*
G01X3360000Y3640000D03*
G01X3200000Y2980000D03*
G54D14*
G01X3200000Y2980000D02*
G01X3300000Y2980000D01*
G01X3300000Y2980000D02*
G01X3300000Y2510000D01*
G01X3300000Y2510000D02*
G01X3300000Y2500000D01*
G01X2431102Y3937007D02*
G01X2440000Y3760000D01*
G01X2440000Y3760000D02*
G01X2440000Y3580000D01*
G01X2440000Y3580000D02*
G01X2300000Y3440000D01*
G01X2300000Y3440000D02*
G01X2300000Y3100000D01*

G04 Draw Text*
M00*
M02*
