G04 FreePCB version 1.200*
G04 \\DISKSTATION\museum\Computers\RK86\Clones\Apogey BK-01\RomDisk\My\CAM\bottom_mask.grb*
G04  layer *
G04 Scale: 100 percent, Rotated: No, Reflected: No *
%FSLAX26Y26*%
%MOIN*%
%LNTop*%
%ADD10C,0.005000*%
%ADD11R,0.071000X0.071000*%
%ADD12C,0.071000*%
%ADD13C,0.091000*%
%ADD14C,0.044000*%
%ADD15C,0.016000*%
G90*
G70D02*

G04 ----------------------- Draw board outline (positive)*
%LPD*%
G54D10*
G01X2310000Y4140000D02*
G01X4490000Y4140000D01*
G04 end of side 1*
G01X4490000Y3640000D01*
G04 end of side 2*
G01X4800000Y3330000D01*
G04 end of side 3*
G01X4800000Y2190000D01*
G04 end of side 4*
G01X2000000Y2190000D01*
G04 end of side 5*
G01X2000000Y3330000D01*
G04 end of side 6*
G01X2300000Y3630000D01*
G04 end of side 7*
G01X2300000Y4140000D01*
G04 end of side 8*
G01X2320000Y4140000D01*
G04 end of side 9*
G01X2310000Y4140000D01*

G04 -------------- Draw Parts, Pads, Traces, Vias and Text (positive)*
%LPD*%
G04 Draw part D1*
G54D11*
G01X3700000Y3100000D03*
G54D12*
G01X3600000Y3100000D03*
G01X3500000Y3100000D03*
G01X3400000Y3100000D03*
G01X3300000Y3100000D03*
G01X3200000Y3100000D03*
G01X3100000Y3100000D03*
G01X3000000Y3100000D03*
G01X2900000Y3100000D03*
G01X2800000Y3100000D03*
G01X2700000Y3100000D03*
G01X2600000Y3100000D03*
G01X2500000Y3100000D03*
G01X2400000Y3100000D03*
G01X2300000Y3100000D03*
G01X2200000Y3100000D03*
G01X2200000Y2500000D03*
G01X2300000Y2500000D03*
G01X2400000Y2500000D03*
G01X2500000Y2500000D03*
G01X2600000Y2500000D03*
G01X2700000Y2500000D03*
G01X2800000Y2500000D03*
G01X2900000Y2500000D03*
G01X3000000Y2500000D03*
G01X3100000Y2500000D03*
G01X3200000Y2500000D03*
G01X3300000Y2500000D03*
G01X3400000Y2500000D03*
G01X3500000Y2500000D03*
G01X3600000Y2500000D03*
G01X3700000Y2500000D03*
G04 Draw part B*
G04 Draw part A*
G36*
G01X2383732Y3732157D02*
G01X2383732Y4141858D01*
G01X2478472Y4141858D01*
G01X2478472Y3732157D01*
G01X2383732Y3732157D01*
G37*
G36*
G01X2521527Y3732157D02*
G01X2521527Y4141858D01*
G01X2616267Y4141858D01*
G01X2616267Y3732157D01*
G01X2521527Y3732157D01*
G37*
G36*
G01X2659322Y3732157D02*
G01X2659322Y4141858D01*
G01X2754062Y4141858D01*
G01X2754062Y3732157D01*
G01X2659322Y3732157D01*
G37*
G36*
G01X2797118Y3732157D02*
G01X2797118Y4141858D01*
G01X2891858Y4141858D01*
G01X2891858Y3732157D01*
G01X2797118Y3732157D01*
G37*
G36*
G01X2934913Y3732157D02*
G01X2934913Y4141858D01*
G01X3029653Y4141858D01*
G01X3029653Y3732157D01*
G01X2934913Y3732157D01*
G37*
G36*
G01X3072708Y3732157D02*
G01X3072708Y4141858D01*
G01X3167448Y4141858D01*
G01X3167448Y3732157D01*
G01X3072708Y3732157D01*
G37*
G36*
G01X3210503Y3732157D02*
G01X3210503Y4141858D01*
G01X3305244Y4141858D01*
G01X3305244Y3732157D01*
G01X3210503Y3732157D01*
G37*
G36*
G01X3348299Y3732157D02*
G01X3348299Y4141858D01*
G01X3443039Y4141858D01*
G01X3443039Y3732157D01*
G01X3348299Y3732157D01*
G37*
G36*
G01X3486094Y3732157D02*
G01X3486094Y4141858D01*
G01X3580834Y4141858D01*
G01X3580834Y3732157D01*
G01X3486094Y3732157D01*
G37*
G36*
G01X3623889Y3732157D02*
G01X3623889Y4141858D01*
G01X3718629Y4141858D01*
G01X3718629Y3732157D01*
G01X3623889Y3732157D01*
G37*
G36*
G01X3761685Y3732157D02*
G01X3761685Y4141858D01*
G01X3856425Y4141858D01*
G01X3856425Y3732157D01*
G01X3761685Y3732157D01*
G37*
G36*
G01X3899480Y3732157D02*
G01X3899480Y4141858D01*
G01X3994220Y4141858D01*
G01X3994220Y3732157D01*
G01X3899480Y3732157D01*
G37*
G36*
G01X4037275Y3732157D02*
G01X4037275Y4141858D01*
G01X4132015Y4141858D01*
G01X4132015Y3732157D01*
G01X4037275Y3732157D01*
G37*
G36*
G01X4175070Y3732157D02*
G01X4175070Y4141858D01*
G01X4269811Y4141858D01*
G01X4269811Y3732157D01*
G01X4175070Y3732157D01*
G37*
G36*
G01X4312866Y3732157D02*
G01X4312866Y4141858D01*
G01X4407606Y4141858D01*
G01X4407606Y3732157D01*
G01X4312866Y3732157D01*
G37*
G04 Draw part D2*
G54D11*
G01X4300000Y3100000D03*
G54D12*
G01X4300000Y3000000D03*
G01X4300000Y2900000D03*
G01X4300000Y2800000D03*
G01X4300000Y2700000D03*
G01X4300000Y2600000D03*
G01X4300000Y2500000D03*
G01X4300000Y2400000D03*
G01X4600000Y2400000D03*
G01X4600000Y2500000D03*
G01X4600000Y2600000D03*
G01X4600000Y2700000D03*
G01X4600000Y2800000D03*
G01X4600000Y2900000D03*
G01X4600000Y3000000D03*
G01X4600000Y3100000D03*
G04 Draw part C1*
G54D13*
G01X4400000Y3300000D03*
G01X4600000Y3300000D03*
G04 Draw part C2*
G01X3900000Y2900000D03*
G01X3900000Y2700000D03*

G04 Draw traces*
G54D14*
G01X2980000Y3610000D03*
G01X2980000Y3240000D03*
G01X2950000Y2560000D03*
G01X3610000Y3590000D03*
G01X4050000Y3150000D03*
G01X3600000Y2760000D03*
G01X3650000Y2600000D03*
G01X3930000Y2600000D03*
G01X3810000Y3690000D03*
G01X3810000Y3480000D03*
G01X3810000Y2800000D03*
G01X4040000Y3100000D03*
G01X3980000Y2640000D03*
G01X3710000Y2640000D03*
G01X3740000Y3200000D03*
G01X3000000Y3200000D03*
G01X2850000Y3560000D03*
G01X3570000Y3170000D03*
G01X3100000Y3170000D03*
G01X3470000Y3240000D03*
G01X3200000Y3240000D03*
G01X3150000Y3020000D03*
G01X3260000Y3710000D03*
G01X3100000Y2730000D03*
G01X3040000Y3610000D03*
G01X3040000Y3360000D03*
G01X3530000Y3710000D03*
G01X3000000Y2680000D03*
G01X3360000Y3640000D03*
G01X3200000Y2980000D03*

G04 Draw Text*

G04 Draw solder mask cutouts*
G54D15*
M00*
M02*
